<?xml version="1.0" encoding="UTF-8"?>
<svg id="Layer_1" xmlns="http://www.w3.org/2000/svg" version="1.1" viewBox="0 0 319 60">
  <!-- Generator: Adobe Illustrator 30.0.0, SVG Export Plug-In . SVG Version: 2.1.1 Build 123)  -->
  <defs>
    <style>
      .st0 {
        fill: #fff;
      }

      .st0, .st1 {
        fill-rule: evenodd;
      }

      .st1 {
        fill: #f89825;
      }
    </style>
  </defs>
  <g id="Horizontal_copy">
    <g>
      <g id="Page-1">
        <g id="logo_light_no_background">
          <g id="Group">
            <path id="Shape" class="st0" d="M46.8,33.8l-4.2,3.9c.7.6,1.3,1,2,1.5,2,1.5,3.8,2.8,5.5,3.9,3.7,2.3,6.9,3.6,9.8,3.6,9.2,0,16.5-7.3,16.5-16.5s-6.1-15-13.9-16.3h0v2.1c-.2,1.1-.7,2.3-1.4,3.4h0c5.4.7,9.5,5.3,9.5,10.8s-4.8,10.8-10.8,10.8-3.9-.9-6.8-2.8c-1.6-.9-3.2-2.2-5-3.6-.3-.2-.8-.5-1.1-.8h0ZM19,19.8c.3-1.4,1.4-2.6,3-3.3l1.8-.8c-2.5-1.3-4.8-2-6.9-2C7.7,13.7.4,21.1.4,30.2s7.5,16.5,16.5,16.5,3.7-.5,5.6-1.4h0l-7.3-4.4s-.2,0-.3-.2c-4.9-.9-8.7-5.3-8.7-10.6s4.8-10.8,10.8-10.8,1.3.1,2.1.3h0Z"/>
            <path id="Shape-Copy" class="st0" d="M37.8,36.2c-.5.3-1.3.9-1.7,1.1l-8.8,4.6c-.6.2-1.4.2-1.8,0l-7.9-4.6c-.2,0-.2-.3,0-.6l1.6-.9c.5-.3,1.4-.5,2-.3l4.9.7c.6,0,1.4,0,1.8-.6l5.4-4.6c.7-.6.7-1.5,0-2.1,0,0-.7-.7-3.8-3.1s-5.9-4-5.9-4c-.8-.5-.7-1.1,0-1.5l2.1-.9c.8-.3,2.2-.5,3-.2l11.8,3.3c.6.1,1.4,0,1.8-.3,0,0,6.7-5,7.6-6s3.7-3.1,4.9-2.5c0,0,2-1,2.8-.1,2.1,2.2-4,7.9-4,7.9l-15.8,14.7h.1Z"/>
          </g>
        </g>
      </g>
      <g>
        <path id="INFINITE-FLIGHT-Copy" class="st0" d="M95.4,38.3v-16.5h-4.2v16.6h4.2ZM112.4,32.5l-6.9-10.8h-4.6v16.6h4v-10.8l7,10.9h4.5v-16.8h-4v10.8ZM121.9,38.3h4.1v-6.3h6.2v-3.4h-6.2v-3.4h7.7v-3.4h-11.9v16.6h.1ZM142.6,38.3v-16.5h-4.2v16.6h4.2ZM159.7,32.5l-6.9-10.8h-4.6v16.6h4v-10.8l7,10.9h4.5v-16.8h-4v10.8ZM173.5,38.3v-16.5h-4.2v16.6h4.2ZM192.6,25.2v-3.6h-14.8v3.6h5.3v13.1h4.2v-13.1h5.3,0ZM209.3,38.3v-3.4h-8v-3.2h6.4v-3.3h-6.4v-3.2h8v-3.4h-12.2v16.6s12.2,0,12.2,0Z"/>
        <path id="Path" class="st1" d="M318.7,25.2v-3.6h-14.8v3.6h5.3v13.1h4.2v-13.1h5.3,0ZM299.6,38.3v-16.5h-4.2v6.4h-6.7v-6.4h-4.2v16.6h4.2v-6.7h6.7v6.7h4.2ZM279.3,37.2v-8.3h-7.9v3.3h4.1v2.4c-.7.3-1.7.5-2.6.5-3.2,0-4.8-2-4.8-5.3s2-5,4.9-5,3.2.5,4.8,1.4l1.4-3.6c-1.6-.9-4.1-1.5-6.3-1.5-5.5,0-9,3.3-9,8.8s3.7,8.6,9,8.6,4.6-.5,6.4-1.4h0ZM258.8,38.3v-16.5h-4.2v16.6h4.2ZM249.9,38.3v-3.6h-7v-13h-4.2v16.6h11.2ZM222.2,38.3h4.1v-6.3h6.2v-3.4h-6.2v-3.4h7.7v-3.4h-11.9v16.6h.1Z"/>
      </g>
    </g>
  </g>
</svg>